# xmcd
#
# Track frame offsets: 
#        150
#        12376
#        39265
#        60658
#        91744
#        103564
#        116539
#        136896
#        158555
#        176572
#        193274
#
# Disc length: 2841 seconds
#
# Revision: 0
# Processed by: cddbd v1.5.2PL0 Copyright (c) Steve Scherf et al.
# Submitted via: ExactAudioCopy v0.99pb4
#
DISCID=840b170b
DTITLE=One More Voice - What Grace!
DYEAR=2000
DGENRE=Gospel
TTITLE0=Praise the Name of Jesus
TTITLE1=I wanna know what Love is
TTITLE2=Until I found the Lord
TTITLE3=His Eye is on the Sparrow
TTITLE4=More Abundantly
TTITLE5=Sweet little Jesus boy
TTITLE6=Jesus is a Rock
TTITLE7=Jesus we crow You with Praise
TTITLE8=Born again
TTITLE9=Amazing Grace
TTITLE10=Peace in the Valley
EXTD=
EXTT0=
EXTT1=
EXTT2=
EXTT3=
EXTT4=
EXTT5=
EXTT6=
EXTT7=
EXTT8=
EXTT9=
EXTT10=
PLAYORDER=
